<?xml version="1.0" encoding="UTF-8" standalone="no"?><svg xmlns="http://www.w3.org/2000/svg" xmlns:xlink="http://www.w3.org/1999/xlink" clip-rule="evenodd" stroke-miterlimit="10" viewBox="0 0 1024 768"><desc>SVG generated by Keynote</desc><defs></defs><g transform="matrix(1.00, 0.00, -0.00, -1.00, 0.0, 768.0)"><path d="M 0.0 768.0 L 1024.0 768.0 L 1024.0 0.0 L 0.0 0.0 Z M 0.0 768.0 " fill="#FFFFFF"></path><text xml:space="preserve" font-family="Helvetica-Light,Helvetica" font-size="65.0" fill="#000000" transform="matrix(1.00, 0.00, -0.00, -1.00, 108.7, 471.9)">N</text><text xml:space="preserve" font-family="Helvetica-Light,Helvetica" font-size="65.0" fill="#000000" transform="matrix(1.00, 0.00, -0.00, -1.00, 155.6, 471.9)">e</text><text xml:space="preserve" font-family="Helvetica-Light,Helvetica" font-size="65.0" fill="#000000" transform="matrix(1.00, 0.00, -0.00, -1.00, 191.7, 471.9)">t</text><text xml:space="preserve" font-family="Helvetica-Light,Helvetica" font-size="65.0" fill="#000000" transform="matrix(1.00, 0.00, -0.00, -1.00, 209.8, 471.9)">w</text><text xml:space="preserve" font-family="Helvetica-Light,Helvetica" font-size="65.0" fill="#000000" transform="matrix(1.00, 0.00, -0.00, -1.00, 256.7, 471.9)">o</text><text xml:space="preserve" font-family="Helvetica-Light,Helvetica" font-size="65.0" fill="#000000" transform="matrix(1.00, 0.00, -0.00, -1.00, 292.9, 471.9)">r</text><text xml:space="preserve" font-family="Helvetica-Light,Helvetica" font-size="65.0" fill="#000000" transform="matrix(1.00, 0.00, -0.00, -1.00, 314.5, 471.9)">k</text><text xml:space="preserve" font-family="Helvetica-Light,Helvetica" font-size="65.0" fill="#000000" transform="matrix(1.00, 0.00, -0.00, -1.00, 347.0, 471.9)"> </text><text xml:space="preserve" font-family="Helvetica-Light,Helvetica" font-size="65.0" fill="#000000" transform="matrix(1.00, 0.00, -0.00, -1.00, 365.1, 471.9)">A</text><text xml:space="preserve" font-family="Helvetica-Light,Helvetica" font-size="65.0" fill="#000000" transform="matrix(1.00, 0.00, -0.00, -1.00, 408.5, 471.9)">n</text><text xml:space="preserve" font-family="Helvetica-Light,Helvetica" font-size="65.0" fill="#000000" transform="matrix(1.00, 0.00, -0.00, -1.00, 444.6, 471.9)">a</text><text xml:space="preserve" font-family="Helvetica-Light,Helvetica" font-size="65.0" fill="#000000" transform="matrix(1.00, 0.00, -0.00, -1.00, 480.7, 471.9)">l</text><text xml:space="preserve" font-family="Helvetica-Light,Helvetica" font-size="65.0" fill="#000000" transform="matrix(1.00, 0.00, -0.00, -1.00, 495.2, 471.9)">y</text><text xml:space="preserve" font-family="Helvetica-Light,Helvetica" font-size="65.0" fill="#000000" transform="matrix(1.00, 0.00, -0.00, -1.00, 527.7, 471.9)">s</text><text xml:space="preserve" font-family="Helvetica-Light,Helvetica" font-size="65.0" fill="#000000" transform="matrix(1.00, 0.00, -0.00, -1.00, 560.2, 471.9)">i</text><text xml:space="preserve" font-family="Helvetica-Light,Helvetica" font-size="65.0" fill="#000000" transform="matrix(1.00, 0.00, -0.00, -1.00, 574.6, 471.9)">s</text><text xml:space="preserve" font-family="Helvetica-Light,Helvetica" font-size="65.0" fill="#000000" transform="matrix(1.00, 0.00, -0.00, -1.00, 607.1, 471.9)"> </text><text xml:space="preserve" font-family="Helvetica-Light,Helvetica" font-size="65.0" fill="#000000" transform="matrix(1.00, 0.00, -0.00, -1.00, 625.2, 471.9)">o</text><text xml:space="preserve" font-family="Helvetica-Light,Helvetica" font-size="65.0" fill="#000000" transform="matrix(1.00, 0.00, -0.00, -1.00, 661.3, 471.9)">f</text><text xml:space="preserve" font-family="Helvetica-Light,Helvetica" font-size="65.0" fill="#000000" transform="matrix(1.00, 0.00, -0.00, -1.00, 679.4, 471.9)"> </text><text xml:space="preserve" font-family="Helvetica-Light,Helvetica" font-size="65.0" fill="#000000" transform="matrix(1.00, 0.00, -0.00, -1.00, 697.4, 471.9)">L</text><text xml:space="preserve" font-family="Helvetica-Light,Helvetica" font-size="65.0" fill="#000000" transform="matrix(1.00, 0.00, -0.00, -1.00, 733.6, 471.9)">i</text><text xml:space="preserve" font-family="Helvetica-Light,Helvetica" font-size="65.0" fill="#000000" transform="matrix(1.00, 0.00, -0.00, -1.00, 748.0, 471.9)">t</text><text xml:space="preserve" font-family="Helvetica-Light,Helvetica" font-size="65.0" fill="#000000" transform="matrix(1.00, 0.00, -0.00, -1.00, 766.1, 471.9)">e</text><text xml:space="preserve" font-family="Helvetica-Light,Helvetica" font-size="65.0" fill="#000000" transform="matrix(1.00, 0.00, -0.00, -1.00, 802.2, 471.9)">r</text><text xml:space="preserve" font-family="Helvetica-Light,Helvetica" font-size="65.0" fill="#000000" transform="matrix(1.00, 0.00, -0.00, -1.00, 823.9, 471.9)">a</text><text xml:space="preserve" font-family="Helvetica-Light,Helvetica" font-size="65.0" fill="#000000" transform="matrix(1.00, 0.00, -0.00, -1.00, 860.0, 471.9)">r</text><text xml:space="preserve" font-family="Helvetica-Light,Helvetica" font-size="65.0" fill="#000000" transform="matrix(1.00, 0.00, -0.00, -1.00, 882.8, 471.9)">y</text><text xml:space="preserve" font-family="Helvetica-Light,Helvetica" font-size="65.0" fill="#000000" transform="matrix(1.00, 0.00, -0.00, -1.00, 915.3, 471.9)"> </text><text xml:space="preserve" font-family="Helvetica-Light,Helvetica" font-size="65.0" fill="#000000" transform="matrix(1.00, 0.00, -0.00, -1.00, 197.1, 393.9)">T</text><text xml:space="preserve" font-family="Helvetica-Light,Helvetica" font-size="65.0" fill="#000000" transform="matrix(1.00, 0.00, -0.00, -1.00, 227.2, 393.9)">r</text><text xml:space="preserve" font-family="Helvetica-Light,Helvetica" font-size="65.0" fill="#000000" transform="matrix(1.00, 0.00, -0.00, -1.00, 248.9, 393.9)">a</text><text xml:space="preserve" font-family="Helvetica-Light,Helvetica" font-size="65.0" fill="#000000" transform="matrix(1.00, 0.00, -0.00, -1.00, 285.0, 393.9)">n</text><text xml:space="preserve" font-family="Helvetica-Light,Helvetica" font-size="65.0" fill="#000000" transform="matrix(1.00, 0.00, -0.00, -1.00, 321.2, 393.9)">s</text><text xml:space="preserve" font-family="Helvetica-Light,Helvetica" font-size="65.0" fill="#000000" transform="matrix(1.00, 0.00, -0.00, -1.00, 353.7, 393.9)">l</text><text xml:space="preserve" font-family="Helvetica-Light,Helvetica" font-size="65.0" fill="#000000" transform="matrix(1.00, 0.00, -0.00, -1.00, 368.1, 393.9)">a</text><text xml:space="preserve" font-family="Helvetica-Light,Helvetica" font-size="65.0" fill="#000000" transform="matrix(1.00, 0.00, -0.00, -1.00, 404.2, 393.9)">t</text><text xml:space="preserve" font-family="Helvetica-Light,Helvetica" font-size="65.0" fill="#000000" transform="matrix(1.00, 0.00, -0.00, -1.00, 422.3, 393.9)">i</text><text xml:space="preserve" font-family="Helvetica-Light,Helvetica" font-size="65.0" fill="#000000" transform="matrix(1.00, 0.00, -0.00, -1.00, 436.7, 393.9)">o</text><text xml:space="preserve" font-family="Helvetica-Light,Helvetica" font-size="65.0" fill="#000000" transform="matrix(1.00, 0.00, -0.00, -1.00, 472.9, 393.9)">n</text><text xml:space="preserve" font-family="Helvetica-Light,Helvetica" font-size="65.0" fill="#000000" transform="matrix(1.00, 0.00, -0.00, -1.00, 509.0, 393.9)"> </text><text xml:space="preserve" font-family="Helvetica-Light,Helvetica" font-size="65.0" fill="#000000" transform="matrix(1.00, 0.00, -0.00, -1.00, 527.1, 393.9)">i</text><text xml:space="preserve" font-family="Helvetica-Light,Helvetica" font-size="65.0" fill="#000000" transform="matrix(1.00, 0.00, -0.00, -1.00, 541.5, 393.9)">n</text><text xml:space="preserve" font-family="Helvetica-Light,Helvetica" font-size="65.0" fill="#000000" transform="matrix(1.00, 0.00, -0.00, -1.00, 577.6, 393.9)"> </text><text xml:space="preserve" font-family="Helvetica-Light,Helvetica" font-size="65.0" fill="#000000" transform="matrix(1.00, 0.00, -0.00, -1.00, 595.7, 393.9)">t</text><text xml:space="preserve" font-family="Helvetica-Light,Helvetica" font-size="65.0" fill="#000000" transform="matrix(1.00, 0.00, -0.00, -1.00, 613.8, 393.9)">h</text><text xml:space="preserve" font-family="Helvetica-Light,Helvetica" font-size="65.0" fill="#000000" transform="matrix(1.00, 0.00, -0.00, -1.00, 649.9, 393.9)">e</text><text xml:space="preserve" font-family="Helvetica-Light,Helvetica" font-size="65.0" fill="#000000" transform="matrix(1.00, 0.00, -0.00, -1.00, 686.1, 393.9)"> </text><text xml:space="preserve" font-family="Helvetica-Light,Helvetica" font-size="65.0" fill="#000000" transform="matrix(1.00, 0.00, -0.00, -1.00, 704.1, 393.9)">U</text><text xml:space="preserve" font-family="Helvetica-Light,Helvetica" font-size="65.0" fill="#000000" transform="matrix(1.00, 0.00, -0.00, -1.00, 751.1, 393.9)">.</text><text xml:space="preserve" font-family="Helvetica-Light,Helvetica" font-size="65.0" fill="#000000" transform="matrix(1.00, 0.00, -0.00, -1.00, 769.1, 393.9)">S</text><text xml:space="preserve" font-family="Helvetica-Light,Helvetica" font-size="65.0" fill="#000000" transform="matrix(1.00, 0.00, -0.00, -1.00, 808.9, 393.9)">.</text><text xml:space="preserve" font-family="Helvetica-Light,Helvetica" font-size="32.0" fill="#000000" transform="matrix(1.00, 0.00, -0.00, -1.00, 262.4, 318.4)">T</text><text xml:space="preserve" font-family="Helvetica-Light,Helvetica" font-size="32.0" fill="#000000" transform="matrix(1.00, 0.00, -0.00, -1.00, 280.2, 318.4)">h</text><text xml:space="preserve" font-family="Helvetica-Light,Helvetica" font-size="32.0" fill="#000000" transform="matrix(1.00, 0.00, -0.00, -1.00, 298.0, 318.4)">o</text><text xml:space="preserve" font-family="Helvetica-Light,Helvetica" font-size="32.0" fill="#000000" transform="matrix(1.00, 0.00, -0.00, -1.00, 315.8, 318.4)">m</text><text xml:space="preserve" font-family="Helvetica-Light,Helvetica" font-size="32.0" fill="#000000" transform="matrix(1.00, 0.00, -0.00, -1.00, 342.5, 318.4)">a</text><text xml:space="preserve" font-family="Helvetica-Light,Helvetica" font-size="32.0" fill="#000000" transform="matrix(1.00, 0.00, -0.00, -1.00, 360.3, 318.4)">s</text><text xml:space="preserve" font-family="Helvetica-Light,Helvetica" font-size="32.0" fill="#000000" transform="matrix(1.00, 0.00, -0.00, -1.00, 376.3, 318.4)"> </text><text xml:space="preserve" font-family="Helvetica-Light,Helvetica" font-size="32.0" fill="#000000" transform="matrix(1.00, 0.00, -0.00, -1.00, 385.2, 318.4)">B</text><text xml:space="preserve" font-family="Helvetica-Light,Helvetica" font-size="32.0" fill="#000000" transform="matrix(1.00, 0.00, -0.00, -1.00, 406.5, 318.4)">e</text><text xml:space="preserve" font-family="Helvetica-Light,Helvetica" font-size="32.0" fill="#000000" transform="matrix(1.00, 0.00, -0.00, -1.00, 424.3, 318.4)">e</text><text xml:space="preserve" font-family="Helvetica-Light,Helvetica" font-size="32.0" fill="#000000" transform="matrix(1.00, 0.00, -0.00, -1.00, 442.1, 318.4)">b</text><text xml:space="preserve" font-family="Helvetica-Light,Helvetica" font-size="32.0" fill="#000000" transform="matrix(1.00, 0.00, -0.00, -1.00, 461.6, 318.4)">e</text><text xml:space="preserve" font-family="Helvetica-Light,Helvetica" font-size="32.0" fill="#000000" transform="matrix(1.00, 0.00, -0.00, -1.00, 479.4, 318.4)">e</text><text xml:space="preserve" font-family="Helvetica-Light,Helvetica" font-size="32.0" fill="#000000" transform="matrix(1.00, 0.00, -0.00, -1.00, 497.2, 318.4)"> </text><text xml:space="preserve" font-family="Helvetica-Light,Helvetica" font-size="32.0" fill="#000000" transform="matrix(1.00, 0.00, -0.00, -1.00, 506.1, 318.4)">&amp;</text><text xml:space="preserve" font-family="Helvetica-Light,Helvetica" font-size="32.0" fill="#000000" transform="matrix(1.00, 0.00, -0.00, -1.00, 527.5, 318.4)"> </text><text xml:space="preserve" font-family="Helvetica-Light,Helvetica" font-size="32.0" fill="#000000" transform="matrix(1.00, 0.00, -0.00, -1.00, 536.4, 318.4)">D</text><text xml:space="preserve" font-family="Helvetica-Light,Helvetica" font-size="32.0" fill="#000000" transform="matrix(1.00, 0.00, -0.00, -1.00, 559.5, 318.4)">a</text><text xml:space="preserve" font-family="Helvetica-Light,Helvetica" font-size="32.0" fill="#000000" transform="matrix(1.00, 0.00, -0.00, -1.00, 577.2, 318.4)">w</text><text xml:space="preserve" font-family="Helvetica-Light,Helvetica" font-size="32.0" fill="#000000" transform="matrix(1.00, 0.00, -0.00, -1.00, 600.4, 318.4)">n</text><text xml:space="preserve" font-family="Helvetica-Light,Helvetica" font-size="32.0" fill="#000000" transform="matrix(1.00, 0.00, -0.00, -1.00, 618.1, 318.4)"> </text><text xml:space="preserve" font-family="Helvetica-Light,Helvetica" font-size="32.0" fill="#000000" transform="matrix(1.00, 0.00, -0.00, -1.00, 627.0, 318.4)">C</text><text xml:space="preserve" font-family="Helvetica-Light,Helvetica" font-size="32.0" fill="#000000" transform="matrix(1.00, 0.00, -0.00, -1.00, 650.1, 318.4)">h</text><text xml:space="preserve" font-family="Helvetica-Light,Helvetica" font-size="32.0" fill="#000000" transform="matrix(1.00, 0.00, -0.00, -1.00, 667.9, 318.4)">i</text><text xml:space="preserve" font-family="Helvetica-Light,Helvetica" font-size="32.0" fill="#000000" transform="matrix(1.00, 0.00, -0.00, -1.00, 675.0, 318.4)">l</text><text xml:space="preserve" font-family="Helvetica-Light,Helvetica" font-size="32.0" fill="#000000" transform="matrix(1.00, 0.00, -0.00, -1.00, 682.1, 318.4)">d</text><text xml:space="preserve" font-family="Helvetica-Light,Helvetica" font-size="32.0" fill="#000000" transform="matrix(1.00, 0.00, -0.00, -1.00, 701.7, 318.4)">r</text><text xml:space="preserve" font-family="Helvetica-Light,Helvetica" font-size="32.0" fill="#000000" transform="matrix(1.00, 0.00, -0.00, -1.00, 711.8, 318.4)">e</text><text xml:space="preserve" font-family="Helvetica-Light,Helvetica" font-size="32.0" fill="#000000" transform="matrix(1.00, 0.00, -0.00, -1.00, 729.6, 318.4)">s</text><text xml:space="preserve" font-family="Helvetica-Light,Helvetica" font-size="32.0" fill="#000000" transform="matrix(1.00, 0.00, -0.00, -1.00, 745.6, 318.4)">s</text><text xml:space="preserve" font-family="LucidaGrande,Lucida Grande" font-size="32.0" fill="#000000" transform="matrix(1.00, 0.00, -0.00, -1.00, 761.6, 318.4)"> </text><text xml:space="preserve" font-family="Helvetica-Light,Helvetica" font-size="32.0" fill="#000000" transform="matrix(1.00, 0.00, -0.00, -1.00, 424.0, 280.4)">L</text><text xml:space="preserve" font-family="Helvetica-Light,Helvetica" font-size="32.0" fill="#000000" transform="matrix(1.00, 0.00, -0.00, -1.00, 441.7, 280.4)">A</text><text xml:space="preserve" font-family="Helvetica-Light,Helvetica" font-size="32.0" fill="#000000" transform="matrix(1.00, 0.00, -0.00, -1.00, 463.1, 280.4)">S</text><text xml:space="preserve" font-family="Helvetica-Light,Helvetica" font-size="32.0" fill="#000000" transform="matrix(1.00, 0.00, -0.00, -1.00, 482.6, 280.4)">T</text><text xml:space="preserve" font-family="Helvetica-Light,Helvetica" font-size="32.0" fill="#000000" transform="matrix(1.00, 0.00, -0.00, -1.00, 500.4, 280.4)">S</text><text xml:space="preserve" font-family="Helvetica-Light,Helvetica" font-size="32.0" fill="#000000" transform="matrix(1.00, 0.00, -0.00, -1.00, 520.0, 280.4)"> </text><text xml:space="preserve" font-family="Helvetica-Light,Helvetica" font-size="32.0" fill="#000000" transform="matrix(1.00, 0.00, -0.00, -1.00, 528.9, 280.4)">2</text><text xml:space="preserve" font-family="Helvetica-Light,Helvetica" font-size="32.0" fill="#000000" transform="matrix(1.00, 0.00, -0.00, -1.00, 546.7, 280.4)">0</text><text xml:space="preserve" font-family="Helvetica-Light,Helvetica" font-size="32.0" fill="#000000" transform="matrix(1.00, 0.00, -0.00, -1.00, 564.5, 280.4)">1</text><text xml:space="preserve" font-family="Helvetica-Light,Helvetica" font-size="32.0" fill="#000000" transform="matrix(1.00, 0.00, -0.00, -1.00, 582.3, 280.4)">4</text></g></svg>