<?xml version="1.0" encoding="UTF-8" standalone="no"?><svg xmlns="http://www.w3.org/2000/svg" xmlns:xlink="http://www.w3.org/1999/xlink" clip-rule="evenodd" stroke-miterlimit="10" viewBox="0 0 1024 768"><desc>SVG generated by Keynote</desc><defs></defs><g transform="matrix(1.00, 0.00, -0.00, -1.00, 0.0, 768.0)"><path d="M 0.0 768.0 L 1024.0 768.0 L 1024.0 0.0 L 0.0 0.0 Z M 0.0 768.0 " fill="#FFFFFF"></path><text xml:space="preserve" font-family="Helvetica-Light,Helvetica" font-size="61.0" fill="#000000" transform="matrix(1.00, 0.00, -0.00, -1.00, 320.4, 361.0)">F</text><text xml:space="preserve" font-family="Helvetica-Light,Helvetica" font-size="61.0" fill="#000000" transform="matrix(1.00, 0.00, -0.00, -1.00, 354.3, 361.0)">i</text><text xml:space="preserve" font-family="Helvetica-Light,Helvetica" font-size="61.0" fill="#000000" transform="matrix(1.00, 0.00, -0.00, -1.00, 367.9, 361.0)">n</text><text xml:space="preserve" font-family="Helvetica-Light,Helvetica" font-size="61.0" fill="#000000" transform="matrix(1.00, 0.00, -0.00, -1.00, 401.8, 361.0)">a</text><text xml:space="preserve" font-family="Helvetica-Light,Helvetica" font-size="61.0" fill="#000000" transform="matrix(1.00, 0.00, -0.00, -1.00, 435.7, 361.0)">l</text><text xml:space="preserve" font-family="Helvetica-Light,Helvetica" font-size="61.0" fill="#000000" transform="matrix(1.00, 0.00, -0.00, -1.00, 449.3, 361.0)"> </text><text xml:space="preserve" font-family="Helvetica-Light,Helvetica" font-size="61.0" fill="#000000" transform="matrix(1.00, 0.00, -0.00, -1.00, 466.2, 361.0)">t</text><text xml:space="preserve" font-family="Helvetica-Light,Helvetica" font-size="61.0" fill="#000000" transform="matrix(1.00, 0.00, -0.00, -1.00, 483.2, 361.0)">h</text><text xml:space="preserve" font-family="Helvetica-Light,Helvetica" font-size="61.0" fill="#000000" transform="matrix(1.00, 0.00, -0.00, -1.00, 517.1, 361.0)">o</text><text xml:space="preserve" font-family="Helvetica-Light,Helvetica" font-size="61.0" fill="#000000" transform="matrix(1.00, 0.00, -0.00, -1.00, 551.0, 361.0)">u</text><text xml:space="preserve" font-family="Helvetica-Light,Helvetica" font-size="61.0" fill="#000000" transform="matrix(1.00, 0.00, -0.00, -1.00, 584.9, 361.0)">g</text><text xml:space="preserve" font-family="Helvetica-Light,Helvetica" font-size="61.0" fill="#000000" transform="matrix(1.00, 0.00, -0.00, -1.00, 622.2, 361.0)">h</text><text xml:space="preserve" font-family="Helvetica-Light,Helvetica" font-size="61.0" fill="#000000" transform="matrix(1.00, 0.00, -0.00, -1.00, 656.1, 361.0)">t</text><text xml:space="preserve" font-family="Helvetica-Light,Helvetica" font-size="61.0" fill="#000000" transform="matrix(1.00, 0.00, -0.00, -1.00, 673.1, 361.0)">s</text></g></svg>